<?xml version="1.0" standalone="no"?>
<!DOCTYPE svg PUBLIC "-//W3C//DTD SVG 20010904//EN"
 "http://www.w3.org/TR/2001/REC-SVG-20010904/DTD/svg10.dtd">
<svg version="1.0" xmlns="http://www.w3.org/2000/svg"
 width="485.000000pt" height="485.000000pt" viewBox="0 0 485.000000 485.000000"
 preserveAspectRatio="xMidYMid meet">
<metadata>
Created by potrace 1.14, written by Peter Selinger 2001-2017
</metadata>
<g transform="translate(0.000000,485.000000) scale(0.100000,-0.100000)"
fill="#000000" stroke="none">
<path d="M4150 4789 c-67 -35 -103 -61 -120 -85 -26 -38 -26 -30 5 -259 3 -23
14 -105 19 -150 2 -16 7 -68 11 -115 4 -47 9 -101 10 -120 17 -191 22 -622 11
-815 -7 -119 -16 -236 -21 -270 -3 -16 -7 -57 -10 -90 -4 -33 -8 -72 -11 -87
-7 -44 -12 -80 -19 -128 -12 -86 -66 -346 -91 -440 -89 -334 -213 -646 -364
-915 -94 -167 -257 -387 -399 -535 l-100 -105 28 -25 c59 -54 82 -70 95 -70
17 0 278 256 352 344 471 561 742 1234 859 2131 4 31 14 121 20 190 23 238 23
791 0 989 -2 17 -6 65 -10 106 -18 199 -50 418 -66 453 -12 27 -48 47 -82 47
-12 -1 -65 -23 -117 -51z"/>
<path d="M3420 4454 c-88 -46 -118 -79 -122 -134 0 -14 11 -77 25 -140 14 -63
28 -126 30 -140 3 -14 12 -63 20 -110 9 -47 19 -103 22 -125 3 -23 7 -50 9
-60 2 -11 7 -49 11 -85 4 -36 8 -76 10 -90 2 -14 6 -57 10 -97 4 -40 8 -85 10
-100 24 -189 23 -738 -1 -1003 -8 -96 -15 -156 -19 -180 -5 -28 -11 -73 -20
-145 -9 -63 -63 -330 -76 -371 -5 -17 -12 -41 -14 -54 -8 -41 -57 -203 -77
-254 -10 -27 -17 -55 -14 -61 4 -12 108 -65 125 -65 10 0 90 204 146 370 73
215 160 574 190 775 10 67 16 109 20 133 2 13 7 53 10 90 4 37 8 78 10 91 27
169 27 893 0 1096 -3 17 -14 102 -25 190 -11 88 -22 171 -25 185 -3 14 -14 72
-25 130 -27 137 -37 167 -63 185 -35 24 -77 17 -167 -31z"/>
<path d="M2805 4027 c-97 -43 -132 -80 -136 -144 -1 -15 24 -107 55 -204 31
-97 59 -185 61 -195 3 -11 14 -50 24 -88 43 -147 111 -464 136 -631 4 -22 8
-51 10 -65 13 -73 32 -238 41 -340 3 -36 7 -85 9 -110 2 -25 7 -126 11 -225 3
-99 9 -183 13 -187 3 -4 41 -18 84 -31 l77 -25 0 32 c1 17 4 65 8 106 15 164
7 754 -13 930 -2 19 -6 62 -9 95 -4 33 -8 76 -11 95 -3 19 -7 55 -10 80 -9 65
-43 267 -56 325 -50 228 -116 467 -149 543 -12 26 -29 46 -45 52 -35 13 -42
13 -100 -13z"/>
<path d="M2005 2915 c-228 -51 -411 -186 -500 -370 -51 -106 -66 -166 -69
-275 -11 -357 254 -811 799 -1368 71 -74 131 -135 133 -136 4 -4 -34 -179 -84
-396 -25 -107 -47 -202 -49 -210 -2 -8 -8 -35 -15 -60 -30 -108 -31 -108 62
-39 75 56 199 162 269 230 42 41 56 69 73 151 l17 77 107 -85 c59 -47 112 -88
119 -91 6 -2 41 15 78 40 l66 44 -37 29 c-87 68 -203 166 -255 214 l-38 35 20
95 c27 129 28 139 35 189 3 25 7 47 9 50 1 3 6 35 10 71 4 36 8 67 10 70 2 3
6 43 10 90 4 47 9 92 10 101 9 45 18 266 18 429 1 222 -10 374 -39 535 -58
330 -208 522 -449 578 -79 18 -234 20 -310 2z m325 -265 c16 -11 37 -39 49
-63 18 -38 53 -162 65 -230 3 -15 9 -53 15 -85 9 -50 15 -105 27 -232 4 -51 4
-406 -1 -465 -6 -81 -15 -178 -20 -215 -6 -49 -14 -118 -20 -165 -9 -77 -34
-217 -39 -223 -3 -3 -15 6 -27 19 -11 13 -42 47 -67 74 -233 250 -415 535
-485 760 -75 240 -58 442 51 614 114 181 344 288 452 211z"/>
<path d="M555 2833 c-30 -6 -124 -55 -146 -76 -10 -10 -19 -25 -19 -33 0 -16
94 -175 173 -294 278 -415 704 -864 1071 -1129 118 -85 152 -93 80 -18 -28 28
-73 79 -100 112 -27 33 -51 62 -54 65 -35 34 -324 444 -395 562 -172 283 -308
511 -369 619 -84 150 -97 164 -153 185 -39 14 -54 15 -88 7z"/>
</g>
</svg>
